<svg width="18" height="18" fill="none" xmlns="http://www.w3.org/2000/svg"><path fill-rule="evenodd" clip-rule="evenodd" d="M9 1.5l.323-.677A.75.75 0 008.25 1.5c0 .607.03 1.276.06 1.937l.023.532c.035.843.056 1.652.012 2.36C8.3 7.052 8.19 7.577 8.02 7.9a.71.71 0 01-.223.274.51.51 0 01-.297.075c-.244 0-.385-.058-.48-.129-.103-.076-.218-.214-.324-.478-.222-.557-.321-1.459-.321-2.768a.75.75 0 00-1.234-.573l.484.573a91.782 91.782 0 00-.484-.573l-.002.002-.003.002-.01.008-.028.026a7.597 7.597 0 00-.429.42c-.269.285-.624.7-.98 1.232C2.981 7.05 2.25 8.6 2.25 10.5c0 3.826 2.964 6.75 6.75 6.75s6.75-2.924 6.75-6.75c0-3.334-1.635-5.765-3.223-7.334a13.82 13.82 0 00-2.182-1.752A11.902 11.902 0 009.41.866a4.785 4.785 0 00-.06-.03L9.332.827 9.326.825 9.324.824 9 1.5z" fill="#fff"/></svg>