<svg width="28" height="28" fill="none" xmlns="http://www.w3.org/2000/svg"><circle cx="14" cy="14" r="14" fill="#fff"/><path fill-rule="evenodd" clip-rule="evenodd" d="M17.25 9a.917.917 0 00-.917-.917h-.053a.97.97 0 00-.93.692l-.342 1.142h1.325c.507 0 .917-.41.917-.917zm1.32.917a2.417 2.417 0 00-2.237-3.333h-.053A2.47 2.47 0 0014 8.101a2.47 2.47 0 00-2.28-1.519h-.053A2.417 2.417 0 009.43 9.917H8.333a1.75 1.75 0 100 3.5h11.334a1.75 1.75 0 100-3.5H18.57zm-6.903 0h1.325l-.343-1.142a.97.97 0 00-.929-.692h-.053a.917.917 0 100 1.834zm-1.38 4h7.426c.382-.001.747-.002 1.064.11.56.195 1 .636 1.197 1.196.11.317.11.682.11 1.064v.243c0 1.052 0 1.771-.211 2.375a3.75 3.75 0 01-2.301 2.301c-.604.211-1.323.211-2.375.21h-2.394c-1.052.001-1.771.001-2.375-.21a3.75 3.75 0 01-2.3-2.3c-.212-.604-.212-1.324-.211-2.376v-.243c-.001-.382-.002-.747.11-1.064.195-.56.636-1 1.196-1.197.317-.11.682-.11 1.064-.11z" fill="#43A1F7"/></svg>