<svg width="140" height="140" fill="none" xmlns="http://www.w3.org/2000/svg"><path fill-rule="evenodd" clip-rule="evenodd" d="M77.901 4.902c-2.46-.863-4.886.497-7.614 3.103-2.762 2.638-6.122 6.838-10.533 12.352l-.043.054-33.033 41.29-.044.057c-3.348 4.184-5.914 7.391-7.43 9.98-1.517 2.59-2.125 4.797-1.137 6.853.988 2.055 3.09 2.96 6.062 3.393 2.968.433 7.075.433 12.433.433h9.772c2.85 0 4.911.001 6.483.213 1.551.208 2.513.608 3.229 1.324.716.717 1.116 1.678 1.325 3.229.211 1.572.213 3.634.213 6.484v18.027c0 7.061 0 12.439.508 16.225.502 3.739 1.547 6.316 4.007 7.179 2.46.863 4.886-.497 7.614-3.103 2.762-2.638 6.122-6.838 10.533-12.351l.044-.055 33.032-41.29.045-.057c3.348-4.184 5.913-7.391 7.429-9.98 1.518-2.59 2.125-4.797 1.138-6.853-.988-2.055-3.091-2.96-6.063-3.393-2.967-.433-7.075-.433-12.433-.433h-9.772c-2.849 0-4.91-.001-6.483-.213-1.55-.208-2.512-.608-3.228-1.324-.716-.716-1.117-1.678-1.325-3.229-.212-1.572-.213-3.634-.213-6.484V28.306c0-7.06 0-12.44-.508-16.225-.503-3.739-1.547-6.316-4.008-7.18z" fill="url(#paint0_linear_1_814)"/><defs><linearGradient id="paint0_linear_1_814" x1="70.589" y1="135.357" x2="134.967" y2="81.272" gradientUnits="userSpaceOnUse"><stop stop-color="#FFC657"/><stop offset="1" stop-color="#FFD977"/></linearGradient></defs></svg>