<svg width="78" height="78" fill="none" xmlns="http://www.w3.org/2000/svg"><path d="M3 39C3 19.118 19.118 3 39 3s36 16.118 36 36-16.118 36-36 36S3 58.882 3 39z" fill="#fff" fill-opacity=".08"/><path fill-rule="evenodd" clip-rule="evenodd" d="M53.625 28.5L19.5 49.5h39l-4.875-21zm-29.25 0l11.37 8.589L19.5 49.5l4.875-21z" fill="#fff"/><path d="M39 72C20.775 72 6 57.225 6 39H0c0 21.54 17.46 39 39 39v-6zm33-33c0 18.225-14.775 33-33 33v6c21.54 0 39-17.46 39-39h-6zM39 6c18.225 0 33 14.775 33 33h6C78 17.46 60.54 0 39 0v6zm0-6C17.46 0 0 17.46 0 39h6C6 20.775 20.775 6 39 6V0z" fill="#fff" fill-opacity=".12"/></svg>