<svg width="128" height="128" fill="none" xmlns="http://www.w3.org/2000/svg"><rect x="9" y="5" width="110" height="110" rx="55" fill="#1D2022"/><g filter="url(#filter0_d_2_4)" fill="#fff"><path d="M16 60c0-26.51 21.49-48 48-48s48 21.49 48 48-21.49 48-48 48-48-21.49-48-48z" fill-opacity=".08" shape-rendering="crispEdges"/><path fill-rule="evenodd" clip-rule="evenodd" d="M83.5 46L38 74h52l-6.5-28zm-39 0l15.161 11.452L38 74l6.5-28z"/><path d="M64 105c-24.853 0-45-20.147-45-45h-6c0 28.166 22.834 51 51 51v-6zm45-45c0 24.853-20.147 45-45 45v6c28.166 0 51-22.834 51-51h-6zM64 15c24.853 0 45 20.147 45 45h6c0-28.166-22.834-51-51-51v6zm0-6C35.834 9 13 31.834 13 60h6c0-24.853 20.147-45 45-45V9z" fill-opacity=".08"/></g><defs><filter id="filter0_d_2_4" x="0" y="0" width="128" height="128" filterUnits="userSpaceOnUse" color-interpolation-filters="sRGB"><feFlood flood-opacity="0" result="BackgroundImageFix"/><feColorMatrix in="SourceAlpha" values="0 0 0 0 0 0 0 0 0 0 0 0 0 0 0 0 0 0 127 0" result="hardAlpha"/><feOffset dy="4"/><feGaussianBlur stdDeviation="8"/><feComposite in2="hardAlpha" operator="out"/><feColorMatrix values="0 0 0 0 0.0862745 0 0 0 0 0.0941176 0 0 0 0 0.113725 0 0 0 0.24 0"/><feBlend in2="BackgroundImageFix" result="effect1_dropShadow_2_4"/><feBlend in="SourceGraphic" in2="effect1_dropShadow_2_4" result="shape"/></filter></defs></svg>