<svg width="944" height="512" fill="none" xmlns="http://www.w3.org/2000/svg"><g clip-path="url(#clip0_7_35)"><mask id="mask0_7_35" style="mask-type:alpha" maskUnits="userSpaceOnUse" x="0" y="-1" width="512" height="512"><circle r="254.5" transform="matrix(-1 0 0 1 256 255)" stroke="url(#paint0_linear_7_35)" stroke-width="3"/></mask><g mask="url(#mask0_7_35)"><path d="M256 510.5C115.444 510.5 1.5 396.556 1.5 256 1.5 115.444 115.444 1.5 256 1.5c140.556 0 254.5 113.944 254.5 254.5 0 140.556-113.944 254.5-254.5 254.5z" stroke="url(#paint1_radial_7_35)" stroke-width="3"/></g><mask id="mask1_7_35" style="mask-type:alpha" maskUnits="userSpaceOnUse" x="432" y="0" width="512" height="512"><path d="M688 510.5c140.556 0 254.5-113.944 254.5-254.5C942.5 115.444 828.556 1.5 688 1.5 547.444 1.5 433.5 115.444 433.5 256c0 140.556 113.944 254.5 254.5 254.5z" stroke="url(#paint2_linear_7_35)" stroke-width="3"/></mask><g mask="url(#mask1_7_35)"><path d="M688 510.5c140.556 0 254.5-113.944 254.5-254.5C942.5 115.444 828.556 1.5 688 1.5 547.444 1.5 433.5 115.444 433.5 256c0 140.556 113.944 254.5 254.5 254.5z" stroke="url(#paint3_radial_7_35)" stroke-width="3"/><path d="M474 391l-2-3.5-2 3 2 3 2-2.5z" fill="#249DDC"/></g></g><defs><radialGradient id="paint1_radial_7_35" cx="0" cy="0" r="1" gradientUnits="userSpaceOnUse" gradientTransform="rotate(109.819 -60.38 236.882) scale(418.808)"><stop stop-color="#B153FB"/><stop offset="1" stop-color="#6944FF"/></radialGradient><radialGradient id="paint3_radial_7_35" cx="0" cy="0" r="1" gradientUnits="userSpaceOnUse" gradientTransform="rotate(73.851 196.79 456.35) scale(386.865)"><stop stop-color="#6743F7"/><stop offset="1" stop-color="#02E4D6"/></radialGradient><linearGradient id="paint0_linear_7_35" x1="512" y1="256" x2="0" y2="256" gradientUnits="userSpaceOnUse"><stop offset=".347" stop-color="#fff" stop-opacity="0"/><stop offset="1" stop-color="#fff"/></linearGradient><linearGradient id="paint2_linear_7_35" x1="944" y1="256" x2="432" y2="256" gradientUnits="userSpaceOnUse"><stop offset=".347" stop-color="#fff" stop-opacity="0"/><stop offset="1" stop-color="#fff"/></linearGradient><clipPath id="clip0_7_35"><path fill="#fff" d="M0 0h944v512H0z"/></clipPath></defs></svg>